<svg
  xmlns="http://www.w3.org/2000/svg"
  viewBox="0 0 190 165"
  fill="none"
>
  <ellipse cx="92" cy="150" rx="60" ry="9" fill="#000" opacity=".12" />

  <path
    d="M33 98L15 108L24 125L40 114"
    fill="#FFCF2C"
    stroke="#000"
    stroke-linejoin="round"
    stroke-width="5"
  />

  <path
    d="M86 71C96 66 106 64 117 64C132 64 144 70 152 80L132 115L80 113L69 84L86 71Z"
    fill="#FFCF2C"
  />

  <ellipse
    cx="80"
    cy="108"
    rx="56"
    ry="38"
    fill="#FFCF2C"
    stroke="#000"
    stroke-width="5"
  />

  <circle
    cx="125"
    cy="62"
    r="28"
    fill="#FFCF2C"
    stroke="#000"
    stroke-width="5"
  />

  <ellipse
    cx="106"
    cy="89"
    rx="20"
    ry="13"
    fill="#FFCF2C"
  />

  <path
    d="M139 68C149 66 159 69 168 76C159 84 148 88 137 88C129 88 121 85 116 79C121 72 129 68 139 68Z"
    fill="#FF8D3B"
    stroke="#000"
    stroke-linejoin="round"
    stroke-width="5"
  />

  <ellipse
    cx="82"
    cy="109"
    rx="24"
    ry="16"
    fill="#F3BC1B"
    stroke="#000"
    stroke-width="5"
  />

  <circle cx="121" cy="55" r="4.5" fill="#000" />

  <path
    d="M100 41C106 35 114 31 123 30"
    stroke="#FFF7D7"
    stroke-linecap="round"
    stroke-width="7"
  />
</svg>
